<?xml version="1.0" encoding="UTF-8"?>
<!DOCTYPE svg PUBLIC "-//W3C//DTD SVG 1.1//EN" "http://www.w3.org/Graphics/SVG/1.1/DTD/svg11.dtd">
<svg version="1.1" xmlns="http://www.w3.org/2000/svg" xmlns:xlink="http://www.w3.org/1999/xlink" x="0" y="0" width="100" height="100" viewBox="0, 0, 100, 100">
  <g id="Layer_1" display="none">
    <path d="M0,0 L100,0 L100,100 L0,100 L0,0 z" fill="#3A92FF"/>
  </g>
  <g id="origin" display="none">
    <g>
      <text transform="matrix(1, 0, 0, 1, 60, 61.963)">
        <tspan x="-43.348" y="49.89" font-family="Menlo-Regular" font-size="144" fill="#000000">S</tspan>
      </text>
      <path d="M87.809,10.462 L87.809,24.876 Q81.34,20.728 74.836,18.618 Q68.332,16.509 61.723,16.509 Q51.668,16.509 45.832,21.185 Q39.996,25.86 39.996,33.806 Q39.996,40.767 43.828,44.423 Q47.66,48.079 58.137,50.54 L65.59,52.228 Q80.355,55.673 87.105,63.056 Q93.855,70.439 93.855,83.165 Q93.855,98.142 84.574,106.017 Q75.293,113.892 57.574,113.892 Q50.191,113.892 42.738,112.31 Q35.285,110.728 27.762,107.564 L27.762,92.446 Q35.848,97.579 43.055,99.97 Q50.262,102.36 57.574,102.36 Q68.332,102.36 74.309,97.544 Q80.285,92.728 80.285,84.079 Q80.285,76.204 76.172,72.056 Q72.059,67.907 61.863,65.657 L54.27,63.899 Q39.645,60.595 33.035,53.915 Q26.426,47.235 26.426,35.985 Q26.426,21.923 35.883,13.45 Q45.34,4.978 61.02,4.978 Q67.066,4.978 73.746,6.349 Q80.426,7.72 87.809,10.462 z" fill="#FFFFFF"/>
    </g>
    <path d="M87.276,32.517 C79.366,32.517 72.954,26.105 72.954,18.195 C72.954,10.285 79.366,3.873 87.276,3.873 C95.185,3.873 101.597,10.285 101.597,18.195 C101.597,26.105 95.185,32.517 87.276,32.517 z" fill="#FFFFFF"/>
    <path d="M31.883,114.441 C23.973,114.441 17.561,108.029 17.561,100.12 C17.561,92.21 23.973,85.798 31.883,85.798 C39.793,85.798 46.205,92.21 46.205,100.12 C46.205,108.029 39.793,114.441 31.883,114.441 z" fill="#FFFFFF"/>
  </g>
  <g id="thick_union">
    <g>
      <g>
        <path d="M74.952,14.853 L74.952,25.714 Q69.387,22.588 63.792,20.999 Q58.197,19.41 52.512,19.41 Q43.862,19.41 38.842,22.933 Q33.822,26.456 33.822,32.443 Q33.822,37.688 37.118,40.443 Q40.415,43.198 49.427,45.053 L55.838,46.324 Q68.54,48.92 74.347,54.483 Q80.153,60.046 80.153,69.636 Q80.153,80.921 72.169,86.855 Q64.185,92.789 48.943,92.789 Q42.592,92.789 36.181,91.597 Q29.769,90.405 23.298,88.02 L23.298,76.629 Q30.253,80.497 36.453,82.298 Q42.653,84.1 48.943,84.1 Q58.197,84.1 63.339,80.471 Q68.48,76.841 68.48,70.325 Q68.48,64.391 64.941,61.265 Q61.403,58.139 52.633,56.444 L46.1,55.119 Q33.52,52.629 27.834,47.596 Q22.148,42.562 22.148,34.085 Q22.148,23.489 30.284,17.105 Q38.419,10.721 51.907,10.721 Q57.109,10.721 62.855,11.754 Q68.601,12.787 74.952,14.853 z" fill="#FFFFFF"/>
        <path d="M74.952,14.853 L74.952,25.714 Q69.387,22.588 63.792,20.999 Q58.197,19.41 52.512,19.41 Q43.862,19.41 38.842,22.933 Q33.822,26.456 33.822,32.443 Q33.822,37.688 37.118,40.443 Q40.415,43.198 49.427,45.053 L55.838,46.324 Q68.54,48.92 74.347,54.483 Q80.153,60.046 80.153,69.636 Q80.153,80.921 72.169,86.855 Q64.185,92.789 48.943,92.789 Q42.592,92.789 36.181,91.597 Q29.769,90.405 23.298,88.02 L23.298,76.629 Q30.253,80.497 36.453,82.298 Q42.653,84.1 48.943,84.1 Q58.197,84.1 63.339,80.471 Q68.48,76.841 68.48,70.325 Q68.48,64.391 64.941,61.265 Q61.403,58.139 52.633,56.444 L46.1,55.119 Q33.52,52.629 27.834,47.596 Q22.148,42.562 22.148,34.085 Q22.148,23.489 30.284,17.105 Q38.419,10.721 51.907,10.721 Q57.109,10.721 62.855,11.754 Q68.601,12.787 74.952,14.853 z" fill-opacity="0" stroke="#FFFFFF" stroke-width="8" stroke-linecap="round"/>
      </g>
      <g>
        <path d="M73.598,31.33 C66.971,31.33 61.598,25.957 61.598,19.33 C61.598,12.702 66.971,7.33 73.598,7.33 C80.226,7.33 85.598,12.702 85.598,19.33 C85.598,25.957 80.226,31.33 73.598,31.33 z" fill="#FFFFFF"/>
        <path d="M73.598,31.33 C66.971,31.33 61.598,25.957 61.598,19.33 C61.598,12.702 66.971,7.33 73.598,7.33 C80.226,7.33 85.598,12.702 85.598,19.33 C85.598,25.957 80.226,31.33 73.598,31.33 z" fill-opacity="0" stroke="#FFFFFF" stroke-width="8"/>
      </g>
      <g>
        <path d="M27.402,93.67 C20.774,93.67 15.402,88.298 15.402,81.67 C15.402,75.043 20.774,69.67 27.402,69.67 C34.029,69.67 39.402,75.043 39.402,81.67 C39.402,88.298 34.029,93.67 27.402,93.67 z" fill="#FFFFFF"/>
        <path d="M27.402,93.67 C20.774,93.67 15.402,88.298 15.402,81.67 C15.402,75.043 20.774,69.67 27.402,69.67 C34.029,69.67 39.402,75.043 39.402,81.67 C39.402,88.298 34.029,93.67 27.402,93.67 z" fill-opacity="0" stroke="#FFFFFF" stroke-width="8"/>
      </g>
    </g>
  </g>
</svg>
